<?xml version="1.0" encoding="UTF-8"?><svg id="b" xmlns="http://www.w3.org/2000/svg" width="23.536" height="14.546" viewBox="0 0 23.536 14.546"><defs><style>.d{fill:#3662ff;}.d,.e{stroke-width:0px;}.e{fill:#2848c0;}</style></defs><g id="c"><path class="d" d="M19.969,7.526l-3.02,2.898-2.89,2.773c-1.887,1.81-4.932,1.796-6.802-.03l-2.865-2.8-3.033-2.966-.134-.131C.421,6.452-.053,5.333.005,4.106.106,1.927,1.925.138,4.173.008c1.239-.071,2.379.349,3.226,1.08l.403.395,2.116,2.068.782.765,3.087,3.018c.026.027.051.051.077.074.802.765,1.902,1.236,3.117,1.236,1.151,0,2.199-.424,2.988-1.119"/><path class="e" d="M21.419,4.116c.064,1.22-.396,2.336-1.184,3.153l-.25.242c-.005.005-.01.01-.016.014-.789.696-1.837,1.119-2.988,1.119-1.215,0-2.315-.471-3.117-1.236-.026-.024-.051-.047-.077-.074l-3.087-3.018-.782-.765c1.012,0,1.984-.387,2.703-1.077l1.049-1.007.361-.346C14.879.39,16.016-.029,17.254.043c2.239.13,4.052,1.904,4.165,4.073"/><path class="d" d="M19.33,12.251c.143-1.121,1.196-1.917,2.353-1.779,1.157.138,1.98,1.158,1.837,2.279-.142,1.121-1.196,1.917-2.353,1.779-1.157-.138-1.98-1.158-1.837-2.279"/></g></svg>